<?xml version="1.0" encoding="utf-8"?>
<!-- Generator: Adobe Illustrator 15.0.2, SVG Export Plug-In . SVG Version: 6.00 Build 0)  -->
<!DOCTYPE svg PUBLIC "-//W3C//DTD SVG 1.1//EN" "http://www.w3.org/Graphics/SVG/1.1/DTD/svg11.dtd">
<svg version="1.1" id="Layer_1" xmlns="http://www.w3.org/2000/svg" xmlns:xlink="http://www.w3.org/1999/xlink" x="0px" y="0px"
	 width="60px" height="60px" viewBox="0 0 60 60" enable-background="new 0 0 60 60" xml:space="preserve">
<g>
	<g>
		<path fill="#EEEEEE" d="M36.005,58c-0.564,0-1.151-0.08-1.745-0.238c-1.524-0.406-2.677-1.31-3.334-2.613
			c-1.004-1.991-0.8-4.808,0.606-8.37l0.622-1.574l0.418,0.09l-0.282-0.951c-0.094-0.316-2.285-7.819-0.807-14.295
			c1.716-7.484,5.769-8.601,8.032-8.601c1.031,0,1.9,0.229,2.447,0.422c5.926,2.093,6.721,9.641,5.601,15.468
			c-0.259,1.348-1.013,3.294-2.241,5.786c-1.627,3.302-2.019,4.097-2.985,4.247l0.786,0.167l-0.167,1.773
			C42.651,52.538,40.845,58,36.005,58L36.005,58z"/>
		<path fill="#FFFFFF" d="M39.516,23.447c0.781,0,1.425,0.183,1.783,0.309c5.062,1.788,5.111,8.986,4.301,13.205
			c-0.543,2.823-3.734,8.44-3.736,8.44l-7.656-1.628c0,0-2.152-7.241-0.773-13.279C34.79,24.574,37.576,23.447,39.516,23.447
			 M33.393,47.513l7.572,1.61c0,0-0.649,6.877-4.96,6.877c-0.381,0-0.791-0.054-1.231-0.171
			C31.244,54.889,32.174,50.599,33.393,47.513 M39.516,19.447c-2.301,0-7.881,0.989-9.981,10.153
			c-1.42,6.219,0.273,13.234,0.733,14.937l-0.595,1.507c-1.626,4.117-1.805,7.483-0.532,10.006c0.922,1.828,2.513,3.089,4.603,3.646
			C34.508,59.897,35.268,60,36.005,60c5.492,0,8.449-5.274,8.942-10.501l0.173-1.834c0.309-0.429,0.553-0.882,0.771-1.287
			c0.297-0.549,0.75-1.406,1.225-2.371c1.326-2.689,2.114-4.747,2.411-6.291c1.27-6.608,0.226-15.217-6.896-17.732
			C41.933,19.738,40.829,19.447,39.516,19.447L39.516,19.447z"/>
	</g>
	<g>
		<path fill="#EEEEEE" d="M22.087,38.795c-1.584,0-3-0.584-4.093-1.688c-2.547-2.574-2.573-7.195-2.567-7.713l0.019-1.782
			l0.154-0.017l-0.514-1.175c-0.278-0.637-2.728-6.312-2.99-9.418c-0.503-5.912,1.077-13.336,7.186-14.798
			C19.847,2.069,20.429,2,21.011,2c2.013,0,6.807,0.919,7.837,9.432c0.798,6.598-2.171,13.831-2.297,14.136l-0.382,0.918
			l0.426-0.045l0.455,1.627c1.03,3.686,0.94,6.507-0.267,8.385c-0.791,1.23-2.033,2.01-3.592,2.254
			C22.816,38.765,22.445,38.795,22.087,38.795z"/>
		<path fill="#FFFFFF" d="M21.011,4c1.934,0,5.051,1.058,5.852,7.672c0.744,6.15-2.159,13.126-2.159,13.126l-7.785,0.82
			c0,0-2.587-5.919-2.83-8.786c-0.364-4.281,0.435-11.434,5.659-12.684C20.027,4.082,20.474,4,21.011,4 M25.124,28.606
			c0.893,3.194,1.369,7.558-2.242,8.125c-0.279,0.044-0.543,0.064-0.794,0.064c-4.738,0-4.66-7.38-4.66-7.38L25.124,28.606
			 M21.012,0L21.012,0c-0.74,0-1.479,0.087-2.195,0.259c-7.343,1.758-9.283,10.21-8.713,16.914
			c0.284,3.353,2.674,8.958,3.151,10.048l0.191,0.438l-0.019,1.714c-0.01,0.985,0.093,6.054,3.146,9.14
			c1.477,1.493,3.384,2.282,5.514,2.282c0.461,0,0.936-0.038,1.413-0.112c2.141-0.336,3.857-1.425,4.965-3.148
			c1.53-2.38,1.701-5.746,0.51-10.005l-0.435-1.555c0.635-1.643,3.059-8.447,2.293-14.782C29.576,0.807,22.998,0,21.012,0L21.012,0z
			"/>
	</g>
</g>
</svg>
